<svg width="1500" height="1000" viewBox="0 0 1500 1000" fill="none" xmlns="http://www.w3.org/2000/svg">
  <rect width="1500" height="1000" fill="#FAF8F4"/>
  <rect x="210" y="130" width="720" height="430" rx="40" fill="#FFFFFF" stroke="#DDD1C2"/>
  <rect x="280" y="200" width="280" height="220" rx="24" fill="#C8A46A"/>
  <rect x="610" y="200" width="220" height="100" rx="20" fill="#111111"/>
  <rect x="610" y="340" width="90" height="80" rx="16" fill="#EFE7DA"/>
  <rect x="735" y="340" width="95" height="80" rx="16" fill="#B88657"/>
  <rect x="650" y="500" width="560" height="300" rx="32" fill="#FFFFFF" stroke="#DDD1C2" transform="rotate(-5 650 500)"/>
  <rect x="720" y="560" width="200" height="140" rx="22" fill="#111111" transform="rotate(-5 720 560)"/>
  <rect x="970" y="560" width="120" height="110" rx="18" fill="#C8A46A" transform="rotate(-5 970 560)"/>
  <rect x="980" y="110" width="360" height="620" rx="52" fill="#111111"/>
  <rect x="1025" y="185" width="270" height="440" rx="30" fill="#F7F2EA"/>
  <rect x="1060" y="240" width="200" height="80" rx="16" fill="#C8A46A"/>
  <rect x="1060" y="355" width="200" height="140" rx="18" fill="#EADBC8"/>
  <text x="220" y="885" font-family="Georgia" font-size="70" fill="#111111">Hanni Lu Portfolio</text>
</svg>