<svg width="1600" height="1100" viewBox="0 0 1600 1100" fill="none" xmlns="http://www.w3.org/2000/svg">
  <rect width="1600" height="1100" fill="#FAF8F4"/>
  <rect x="120" y="110" width="1360" height="820" rx="44" fill="#FFFFFF" stroke="#DDD1C2"/>
  <text x="180" y="210" font-family="Arial" font-size="16" letter-spacing="7" fill="#B88657">04 / FINAL-SHOWCASE</text>
  <text x="180" y="290" font-family="Georgia" font-size="70" fill="#111111">CIS / Brand Identity Design</text>
  <text x="185" y="340" font-family="Arial" font-size="24" fill="#6F6258">企業識別・品牌系統・房地產形象</text>
  <rect x="190" y="430" width="360" height="340" rx="28" fill="#2D2520"/>
  <rect x="235" y="490" width="140" height="120" rx="18" fill="#B98C5A"/>
  <rect x="405" y="490" width="95" height="56" rx="14" fill="#EFE7DA"/>
  <rect x="405" y="575" width="95" height="70" rx="14" fill="#D8B56D"/>
  <rect x="620" y="410" width="360" height="390" rx="32" fill="#EFE7DA" stroke="#D9CDBE"/>
  <rect x="675" y="465" width="150" height="180" rx="20" fill="#B98C5A"/>
  <rect x="850" y="465" width="80" height="80" rx="16" fill="#2D2520"/>
  <rect x="850" y="575" width="80" height="70" rx="16" fill="#FFFFFF"/>
  <rect x="1050" y="360" width="280" height="500" rx="42" fill="#2D2520"/>
  <rect x="1092" y="430" width="196" height="320" rx="28" fill="#F6F1E8"/>
  <rect x="1125" y="480" width="130" height="60" rx="14" fill="#B98C5A"/>
  <rect x="1125" y="570" width="130" height="110" rx="14" fill="#EADBC8"/>
  <text x="180" y="875" font-family="Arial" font-size="22" fill="#8A7A6C">Designed as a premium editorial portfolio asset for Hanni Lu.</text>
</svg>