<svg width="1920" height="900" viewBox="0 0 1920 900" fill="none" xmlns="http://www.w3.org/2000/svg">
  <defs>
    <filter id="shadow" x="-20%" y="-20%" width="140%" height="140%">
      <feDropShadow dx="0" dy="30" stdDeviation="35" flood-color="#000000" flood-opacity="0.18"/>
    </filter>
    <linearGradient id="bg" x1="0" x2="1" y1="0" y2="1">
      <stop stop-color="#FAF8F4"/>
      <stop offset="1" stop-color="#EFE6DA"/>
    </linearGradient>
  </defs>
  <rect width="1920" height="900" fill="url(#bg)"/>
  <circle cx="1610" cy="130" r="220" fill="#C8A96A" opacity=".16"/>
  <circle cx="280" cy="750" r="280" fill="#B88657" opacity=".12"/>
  <g filter="url(#shadow)">
    <rect x="1040" y="110" width="610" height="410" rx="34" fill="#FFFFFF" stroke="#DDD1C2"/>
    <rect x="1095" y="165" width="230" height="210" rx="22" fill="#C8A96A"/>
    <rect x="1360" y="165" width="210" height="95" rx="18" fill="#111111"/>
    <rect x="1360" y="295" width="95" height="80" rx="16" fill="#EFE7DA"/>
    <rect x="1480" y="295" width="90" height="80" rx="16" fill="#B88657"/>
  </g>
  <g filter="url(#shadow)" transform="rotate(-5 980 420)">
    <rect x="750" y="300" width="560" height="370" rx="32" fill="#FFFFFF" stroke="#DDD1C2"/>
    <rect x="805" y="355" width="220" height="220" rx="22" fill="#EFE7DA"/>
    <rect x="1060" y="355" width="170" height="85" rx="18" fill="#111111"/>
    <rect x="1060" y="470" width="170" height="105" rx="18" fill="#C8A96A"/>
  </g>
  <g filter="url(#shadow)">
    <rect x="1340" y="490" width="300" height="350" rx="40" fill="#111111"/>
    <rect x="1380" y="540" width="220" height="240" rx="24" fill="#F6F1E8"/>
    <rect x="1415" y="580" width="150" height="58" rx="14" fill="#C8A96A"/>
    <rect x="1415" y="668" width="150" height="82" rx="14" fill="#EADBC8"/>
  </g>
  <text x="160" y="285" font-family="Arial, sans-serif" font-size="18" letter-spacing="8" fill="#B88657">BRANDING</text>
  <text x="160" y="395" font-family="Georgia, serif" font-size="92" fill="#111111">Logo & Business Card Design</text>
  <text x="165" y="455" font-family="Arial, sans-serif" font-size="30" fill="#6F6258">品牌識別・名片設計・基礎應用</text>
  <text x="165" y="535" font-family="Arial, sans-serif" font-size="20" fill="#8A7A6C">Hanni Lu Portfolio Case Study</text>
</svg>